STARTFONT 2.1
FONT -FontForge-Helv Cyrillic-Normal-R-Normal--5-40-100-100-P-54-WinRoman-0
SIZE 4 100 100
FONTBOUNDINGBOX 12 6 0 -1
COMMENT "Generated by fontforge, http://fontforge.sourceforge.net"
COMMENT "Copyright (C) Steepler Ltd., 1990-92."
STARTPROPERTIES 33
FOUNDRY "FontForge"
FAMILY_NAME "Helv Cyrillic"
WEIGHT_NAME "Normal"
SLANT "R"
SETWIDTH_NAME "Normal"
ADD_STYLE_NAME ""
PIXEL_SIZE 5
POINT_SIZE 40
RESOLUTION_X 100
RESOLUTION_Y 100
SPACING "P"
AVERAGE_WIDTH 54
CHARSET_REGISTRY "WinRoman"
CHARSET_ENCODING "0"
FONTNAME_REGISTRY ""
CHARSET_COLLECTIONS "WinRoman"
FONT_NAME "HelvCyrillic"
FACE_NAME "Helv Cyrillic"
COPYRIGHT "Copyright (C) Steepler Ltd., 1990-92."
FONT_VERSION "001.000"
FONT_ASCENT 4
FONT_DESCENT 1
UNDERLINE_POSITION 0
UNDERLINE_THICKNESS 1
X_HEIGHT 3
CAP_HEIGHT 4
RAW_ASCENT 800
RAW_DESCENT 200
NORM_SPACE 2
RELATIVE_WEIGHT 40
RELATIVE_SETWIDTH 50
AVG_LOWERCASE_WIDTH 55
AVG_UPPERCASE_WIDTH 71
ENDPROPERTIES
CHARS 224
STARTCHAR space
ENCODING 32
SWIDTH 562 0
DWIDTH 2 0
BBX 1 1 1 -1
BITMAP
00
ENDCHAR
STARTCHAR exclam
ENCODING 33
SWIDTH 562 0
DWIDTH 2 0
BBX 1 5 1 0
BITMAP
80
80
80
00
80
ENDCHAR
STARTCHAR quotedbl
ENCODING 34
SWIDTH 750 0
DWIDTH 4 0
BBX 3 2 1 3
BITMAP
A0
A0
ENDCHAR
STARTCHAR numbersign
ENCODING 35
SWIDTH 1562 0
DWIDTH 6 0
BBX 5 5 1 0
BITMAP
50
F8
50
F8
50
ENDCHAR
STARTCHAR dollar
ENCODING 36
SWIDTH 1125 0
DWIDTH 5 0
BBX 4 6 1 -1
BITMAP
20
70
C0
30
E0
40
ENDCHAR
STARTCHAR percent
ENCODING 37
SWIDTH 1688 0
DWIDTH 6 0
BBX 5 5 1 0
BITMAP
C8
10
20
40
98
ENDCHAR
STARTCHAR ampersand
ENCODING 38
SWIDTH 1312 0
DWIDTH 9 0
BBX 8 5 1 0
BITMAP
38
44
38
C6
79
ENDCHAR
STARTCHAR quotesingle
ENCODING 39
SWIDTH 562 0
DWIDTH 3 0
BBX 1 2 1 3
BITMAP
80
80
ENDCHAR
STARTCHAR parenleft
ENCODING 40
SWIDTH 688 0
DWIDTH 3 0
BBX 2 6 1 -1
BITMAP
40
80
80
80
80
40
ENDCHAR
STARTCHAR parenright
ENCODING 41
SWIDTH 688 0
DWIDTH 3 0
BBX 2 6 1 -1
BITMAP
80
40
40
40
40
80
ENDCHAR
STARTCHAR asterisk
ENCODING 42
SWIDTH 1000 0
DWIDTH 6 0
BBX 5 3 1 1
BITMAP
A8
70
A8
ENDCHAR
STARTCHAR plus
ENCODING 43
SWIDTH 1188 0
DWIDTH 8 0
BBX 7 5 1 0
BITMAP
10
10
FE
10
10
ENDCHAR
STARTCHAR comma
ENCODING 44
SWIDTH 562 0
DWIDTH 2 0
BBX 2 2 0 -1
BITMAP
40
80
ENDCHAR
STARTCHAR hyphen
ENCODING 45
SWIDTH 625 0
DWIDTH 3 0
BBX 2 1 1 2
BITMAP
C0
ENDCHAR
STARTCHAR period
ENCODING 46
SWIDTH 562 0
DWIDTH 2 0
BBX 1 1 1 0
BITMAP
80
ENDCHAR
STARTCHAR slash
ENCODING 47
SWIDTH 625 0
DWIDTH 4 0
BBX 3 6 1 -1
BITMAP
20
20
40
40
80
80
ENDCHAR
STARTCHAR zero
ENCODING 48
SWIDTH 1125 0
DWIDTH 5 0
BBX 4 5 1 0
BITMAP
60
90
90
90
60
ENDCHAR
STARTCHAR one
ENCODING 49
SWIDTH 1125 0
DWIDTH 5 0
BBX 3 5 1 0
BITMAP
20
E0
20
20
20
ENDCHAR
STARTCHAR two
ENCODING 50
SWIDTH 1125 0
DWIDTH 5 0
BBX 4 5 1 0
BITMAP
E0
10
20
40
F0
ENDCHAR
STARTCHAR three
ENCODING 51
SWIDTH 1125 0
DWIDTH 5 0
BBX 4 5 1 0
BITMAP
E0
10
60
10
E0
ENDCHAR
STARTCHAR four
ENCODING 52
SWIDTH 1125 0
DWIDTH 5 0
BBX 4 5 1 0
BITMAP
A0
A0
A0
F0
20
ENDCHAR
STARTCHAR five
ENCODING 53
SWIDTH 1125 0
DWIDTH 5 0
BBX 4 5 1 0
BITMAP
F0
80
E0
10
E0
ENDCHAR
STARTCHAR six
ENCODING 54
SWIDTH 1125 0
DWIDTH 6 0
BBX 5 5 1 0
BITMAP
70
80
F0
88
70
ENDCHAR
STARTCHAR seven
ENCODING 55
SWIDTH 1125 0
DWIDTH 6 0
BBX 5 5 1 0
BITMAP
F8
08
10
20
40
ENDCHAR
STARTCHAR eight
ENCODING 56
SWIDTH 1125 0
DWIDTH 6 0
BBX 5 5 1 0
BITMAP
70
88
70
88
70
ENDCHAR
STARTCHAR nine
ENCODING 57
SWIDTH 1125 0
DWIDTH 6 0
BBX 5 5 1 0
BITMAP
70
88
78
08
70
ENDCHAR
STARTCHAR colon
ENCODING 58
SWIDTH 562 0
DWIDTH 2 0
BBX 1 4 1 0
BITMAP
80
00
00
80
ENDCHAR
STARTCHAR semicolon
ENCODING 59
SWIDTH 562 0
DWIDTH 2 0
BBX 2 5 0 -1
BITMAP
40
00
00
40
80
ENDCHAR
STARTCHAR less
ENCODING 60
SWIDTH 1188 0
DWIDTH 7 0
BBX 6 5 1 0
BITMAP
0C
30
C0
30
0C
ENDCHAR
STARTCHAR equal
ENCODING 61
SWIDTH 1188 0
DWIDTH 8 0
BBX 7 3 1 1
BITMAP
FE
00
FE
ENDCHAR
STARTCHAR greater
ENCODING 62
SWIDTH 1188 0
DWIDTH 7 0
BBX 6 5 1 0
BITMAP
C0
30
0C
30
C0
ENDCHAR
STARTCHAR question
ENCODING 63
SWIDTH 1062 0
DWIDTH 6 0
BBX 5 5 1 0
BITMAP
70
88
30
00
20
ENDCHAR
STARTCHAR at
ENCODING 64
SWIDTH 2000 0
DWIDTH 8 0
BBX 7 6 1 -1
BITMAP
7C
82
BA
BE
80
7C
ENDCHAR
STARTCHAR A
ENCODING 65
SWIDTH 1312 0
DWIDTH 7 0
BBX 6 5 1 0
BITMAP
30
48
84
FC
84
ENDCHAR
STARTCHAR B
ENCODING 66
SWIDTH 1312 0
DWIDTH 7 0
BBX 6 5 1 0
BITMAP
F8
84
F8
84
F8
ENDCHAR
STARTCHAR C
ENCODING 67
SWIDTH 1438 0
DWIDTH 8 0
BBX 7 5 1 0
BITMAP
7C
82
80
82
7C
ENDCHAR
STARTCHAR D
ENCODING 68
SWIDTH 1438 0
DWIDTH 7 0
BBX 6 5 1 0
BITMAP
F8
84
84
84
F8
ENDCHAR
STARTCHAR E
ENCODING 69
SWIDTH 1250 0
DWIDTH 6 0
BBX 5 5 1 0
BITMAP
F8
80
F0
80
F8
ENDCHAR
STARTCHAR F
ENCODING 70
SWIDTH 1188 0
DWIDTH 6 0
BBX 5 5 1 0
BITMAP
F8
80
F0
80
80
ENDCHAR
STARTCHAR G
ENCODING 71
SWIDTH 1438 0
DWIDTH 8 0
BBX 7 5 1 0
BITMAP
7E
80
8E
82
7E
ENDCHAR
STARTCHAR H
ENCODING 72
SWIDTH 1438 0
DWIDTH 8 0
BBX 7 5 1 0
BITMAP
82
82
FE
82
82
ENDCHAR
STARTCHAR I
ENCODING 73
SWIDTH 500 0
DWIDTH 2 0
BBX 1 5 1 0
BITMAP
80
80
80
80
80
ENDCHAR
STARTCHAR J
ENCODING 74
SWIDTH 1000 0
DWIDTH 5 0
BBX 5 5 0 0
BITMAP
08
08
08
88
70
ENDCHAR
STARTCHAR K
ENCODING 75
SWIDTH 1250 0
DWIDTH 7 0
BBX 6 5 1 0
BITMAP
84
88
F0
88
84
ENDCHAR
STARTCHAR L
ENCODING 76
SWIDTH 1062 0
DWIDTH 5 0
BBX 4 5 1 0
BITMAP
80
80
80
80
F0
ENDCHAR
STARTCHAR M
ENCODING 77
SWIDTH 1688 0
DWIDTH 10 0
BBX 9 5 1 0
BITMAP
8080
C180
A280
9480
8880
ENDCHAR
STARTCHAR N
ENCODING 78
SWIDTH 1438 0
DWIDTH 8 0
BBX 7 5 1 0
BITMAP
C2
A2
92
8A
86
ENDCHAR
STARTCHAR O
ENCODING 79
SWIDTH 1562 0
DWIDTH 8 0
BBX 7 5 1 0
BITMAP
7C
82
82
82
7C
ENDCHAR
STARTCHAR P
ENCODING 80
SWIDTH 1250 0
DWIDTH 7 0
BBX 6 5 1 0
BITMAP
F8
84
F8
80
80
ENDCHAR
STARTCHAR Q
ENCODING 81
SWIDTH 1562 0
DWIDTH 8 0
BBX 7 5 1 0
BITMAP
7C
82
8A
86
7A
ENDCHAR
STARTCHAR R
ENCODING 82
SWIDTH 1312 0
DWIDTH 7 0
BBX 6 5 1 0
BITMAP
F8
84
F8
88
84
ENDCHAR
STARTCHAR S
ENCODING 83
SWIDTH 1312 0
DWIDTH 7 0
BBX 6 5 1 0
BITMAP
7C
80
78
04
F8
ENDCHAR
STARTCHAR T
ENCODING 84
SWIDTH 1125 0
DWIDTH 6 0
BBX 5 5 1 0
BITMAP
F8
20
20
20
20
ENDCHAR
STARTCHAR U
ENCODING 85
SWIDTH 1438 0
DWIDTH 8 0
BBX 7 5 1 0
BITMAP
82
82
82
82
7C
ENDCHAR
STARTCHAR V
ENCODING 86
SWIDTH 1312 0
DWIDTH 8 0
BBX 7 5 1 0
BITMAP
82
82
44
28
10
ENDCHAR
STARTCHAR W
ENCODING 87
SWIDTH 1750 0
DWIDTH 12 0
BBX 11 5 1 0
BITMAP
8420
8420
8A20
5140
2080
ENDCHAR
STARTCHAR X
ENCODING 88
SWIDTH 1188 0
DWIDTH 6 0
BBX 5 5 1 0
BITMAP
88
50
20
50
88
ENDCHAR
STARTCHAR Y
ENCODING 89
SWIDTH 1188 0
DWIDTH 6 0
BBX 5 5 1 0
BITMAP
88
50
20
20
20
ENDCHAR
STARTCHAR Z
ENCODING 90
SWIDTH 1188 0
DWIDTH 6 0
BBX 5 5 1 0
BITMAP
F8
10
20
40
F8
ENDCHAR
STARTCHAR bracketleft
ENCODING 91
SWIDTH 688 0
DWIDTH 4 0
BBX 3 6 1 -1
BITMAP
E0
80
80
80
80
E0
ENDCHAR
STARTCHAR backslash
ENCODING 92
SWIDTH 625 0
DWIDTH 4 0
BBX 3 6 1 -1
BITMAP
80
80
40
40
20
20
ENDCHAR
STARTCHAR bracketright
ENCODING 93
SWIDTH 688 0
DWIDTH 4 0
BBX 3 6 1 -1
BITMAP
E0
20
20
20
20
E0
ENDCHAR
STARTCHAR asciicircum
ENCODING 94
SWIDTH 1000 0
DWIDTH 5 0
BBX 4 2 1 3
BITMAP
60
90
ENDCHAR
STARTCHAR underscore
ENCODING 95
SWIDTH 1125 0
DWIDTH 5 0
BBX 5 1 0 -1
BITMAP
F8
ENDCHAR
STARTCHAR grave
ENCODING 96
SWIDTH 1000 0
DWIDTH 5 0
BBX 2 2 1 3
BITMAP
80
40
ENDCHAR
STARTCHAR a
ENCODING 97
SWIDTH 1062 0
DWIDTH 6 0
BBX 5 4 1 0
BITMAP
70
08
D8
68
ENDCHAR
STARTCHAR b
ENCODING 98
SWIDTH 1188 0
DWIDTH 6 0
BBX 5 5 1 0
BITMAP
80
F0
88
88
F0
ENDCHAR
STARTCHAR c
ENCODING 99
SWIDTH 1062 0
DWIDTH 5 0
BBX 4 4 1 0
BITMAP
70
80
80
70
ENDCHAR
STARTCHAR d
ENCODING 100
SWIDTH 1188 0
DWIDTH 6 0
BBX 5 5 1 0
BITMAP
08
78
88
88
78
ENDCHAR
STARTCHAR e
ENCODING 101
SWIDTH 1125 0
DWIDTH 6 0
BBX 5 4 1 0
BITMAP
70
D8
80
70
ENDCHAR
STARTCHAR f
ENCODING 102
SWIDTH 562 0
DWIDTH 3 0
BBX 2 5 1 0
BITMAP
40
80
C0
80
80
ENDCHAR
STARTCHAR g
ENCODING 103
SWIDTH 1188 0
DWIDTH 6 0
BBX 5 5 1 -1
BITMAP
78
88
78
08
F8
ENDCHAR
STARTCHAR h
ENCODING 104
SWIDTH 1125 0
DWIDTH 6 0
BBX 5 5 1 0
BITMAP
80
F0
88
88
88
ENDCHAR
STARTCHAR i
ENCODING 105
SWIDTH 438 0
DWIDTH 2 0
BBX 1 5 1 0
BITMAP
80
00
80
80
80
ENDCHAR
STARTCHAR j
ENCODING 106
SWIDTH 438 0
DWIDTH 2 0
BBX 2 6 0 -1
BITMAP
40
00
40
40
40
80
ENDCHAR
STARTCHAR k
ENCODING 107
SWIDTH 1062 0
DWIDTH 6 0
BBX 5 5 1 0
BITMAP
80
90
E0
90
88
ENDCHAR
STARTCHAR l
ENCODING 108
SWIDTH 438 0
DWIDTH 2 0
BBX 1 5 1 0
BITMAP
80
80
80
80
80
ENDCHAR
STARTCHAR m
ENCODING 109
SWIDTH 1688 0
DWIDTH 10 0
BBX 9 4 1 0
BITMAP
F700
8880
8880
8880
ENDCHAR
STARTCHAR n
ENCODING 110
SWIDTH 1125 0
DWIDTH 6 0
BBX 5 4 1 0
BITMAP
F0
88
88
88
ENDCHAR
STARTCHAR o
ENCODING 111
SWIDTH 1125 0
DWIDTH 6 0
BBX 5 4 1 0
BITMAP
70
88
88
70
ENDCHAR
STARTCHAR p
ENCODING 112
SWIDTH 1188 0
DWIDTH 6 0
BBX 5 5 1 -1
BITMAP
F0
88
88
F0
80
ENDCHAR
STARTCHAR q
ENCODING 113
SWIDTH 1188 0
DWIDTH 6 0
BBX 5 5 1 -1
BITMAP
78
88
88
78
08
ENDCHAR
STARTCHAR r
ENCODING 114
SWIDTH 688 0
DWIDTH 4 0
BBX 3 4 1 0
BITMAP
E0
80
80
80
ENDCHAR
STARTCHAR s
ENCODING 115
SWIDTH 1000 0
DWIDTH 5 0
BBX 4 4 1 0
BITMAP
70
C0
30
E0
ENDCHAR
STARTCHAR t
ENCODING 116
SWIDTH 562 0
DWIDTH 3 0
BBX 2 5 1 0
BITMAP
80
C0
80
80
C0
ENDCHAR
STARTCHAR u
ENCODING 117
SWIDTH 1125 0
DWIDTH 6 0
BBX 5 4 1 0
BITMAP
88
88
88
78
ENDCHAR
STARTCHAR v
ENCODING 118
SWIDTH 938 0
DWIDTH 6 0
BBX 5 4 1 0
BITMAP
88
88
50
20
ENDCHAR
STARTCHAR w
ENCODING 119
SWIDTH 1438 0
DWIDTH 8 0
BBX 7 4 1 0
BITMAP
92
92
6C
44
ENDCHAR
STARTCHAR x
ENCODING 120
SWIDTH 938 0
DWIDTH 5 0
BBX 4 4 1 0
BITMAP
90
60
60
90
ENDCHAR
STARTCHAR y
ENCODING 121
SWIDTH 938 0
DWIDTH 6 0
BBX 5 5 1 -1
BITMAP
88
88
50
20
C0
ENDCHAR
STARTCHAR z
ENCODING 122
SWIDTH 938 0
DWIDTH 5 0
BBX 4 4 1 0
BITMAP
F0
20
40
F0
ENDCHAR
STARTCHAR braceleft
ENCODING 123
SWIDTH 688 0
DWIDTH 6 0
BBX 5 6 1 -1
BITMAP
18
20
C0
20
20
18
ENDCHAR
STARTCHAR bar
ENCODING 124
SWIDTH 438 0
DWIDTH 2 0
BBX 1 6 1 -1
BITMAP
80
80
80
80
80
80
ENDCHAR
STARTCHAR braceright
ENCODING 125
SWIDTH 688 0
DWIDTH 6 0
BBX 5 6 1 -1
BITMAP
C0
20
18
20
20
C0
ENDCHAR
STARTCHAR asciitilde
ENCODING 126
SWIDTH 1000 0
DWIDTH 6 0
BBX 5 2 1 3
BITMAP
68
B0
ENDCHAR
STARTCHAR uni007F
ENCODING 127
SWIDTH 688 0
DWIDTH 3 0
BBX 2 5 1 0
BITMAP
C0
C0
C0
C0
C0
ENDCHAR
STARTCHAR Euro
ENCODING 128
SWIDTH 688 0
DWIDTH 3 0
BBX 2 5 1 0
BITMAP
C0
C0
C0
C0
C0
ENDCHAR
STARTCHAR NameMe.129
ENCODING 129
SWIDTH 688 0
DWIDTH 3 0
BBX 2 5 1 0
BITMAP
C0
C0
C0
C0
C0
ENDCHAR
STARTCHAR quotesinglbase
ENCODING 130
SWIDTH 688 0
DWIDTH 3 0
BBX 2 5 1 0
BITMAP
C0
C0
C0
C0
C0
ENDCHAR
STARTCHAR florin
ENCODING 131
SWIDTH 688 0
DWIDTH 3 0
BBX 2 5 1 0
BITMAP
C0
C0
C0
C0
C0
ENDCHAR
STARTCHAR quotedblbase
ENCODING 132
SWIDTH 688 0
DWIDTH 3 0
BBX 2 5 1 0
BITMAP
C0
C0
C0
C0
C0
ENDCHAR
STARTCHAR ellipsis
ENCODING 133
SWIDTH 688 0
DWIDTH 3 0
BBX 2 5 1 0
BITMAP
C0
C0
C0
C0
C0
ENDCHAR
STARTCHAR dagger
ENCODING 134
SWIDTH 688 0
DWIDTH 3 0
BBX 2 5 1 0
BITMAP
C0
C0
C0
C0
C0
ENDCHAR
STARTCHAR daggerdbl
ENCODING 135
SWIDTH 688 0
DWIDTH 3 0
BBX 2 5 1 0
BITMAP
C0
C0
C0
C0
C0
ENDCHAR
STARTCHAR circumflex
ENCODING 136
SWIDTH 688 0
DWIDTH 3 0
BBX 2 5 1 0
BITMAP
C0
C0
C0
C0
C0
ENDCHAR
STARTCHAR perthousand
ENCODING 137
SWIDTH 688 0
DWIDTH 3 0
BBX 2 5 1 0
BITMAP
C0
C0
C0
C0
C0
ENDCHAR
STARTCHAR Scaron
ENCODING 138
SWIDTH 688 0
DWIDTH 3 0
BBX 2 5 1 0
BITMAP
C0
C0
C0
C0
C0
ENDCHAR
STARTCHAR guilsinglleft
ENCODING 139
SWIDTH 688 0
DWIDTH 3 0
BBX 2 5 1 0
BITMAP
C0
C0
C0
C0
C0
ENDCHAR
STARTCHAR OE
ENCODING 140
SWIDTH 688 0
DWIDTH 3 0
BBX 2 5 1 0
BITMAP
C0
C0
C0
C0
C0
ENDCHAR
STARTCHAR NameMe.141
ENCODING 141
SWIDTH 688 0
DWIDTH 3 0
BBX 2 5 1 0
BITMAP
C0
C0
C0
C0
C0
ENDCHAR
STARTCHAR Zcaron
ENCODING 142
SWIDTH 688 0
DWIDTH 3 0
BBX 2 5 1 0
BITMAP
C0
C0
C0
C0
C0
ENDCHAR
STARTCHAR NameMe.143
ENCODING 143
SWIDTH 688 0
DWIDTH 3 0
BBX 2 5 1 0
BITMAP
C0
C0
C0
C0
C0
ENDCHAR
STARTCHAR NameMe.144
ENCODING 144
SWIDTH 688 0
DWIDTH 3 0
BBX 2 5 1 0
BITMAP
C0
C0
C0
C0
C0
ENDCHAR
STARTCHAR quoteleft
ENCODING 145
SWIDTH 562 0
DWIDTH 2 0
BBX 2 2 0 3
BITMAP
40
80
ENDCHAR
STARTCHAR quoteright
ENCODING 146
SWIDTH 562 0
DWIDTH 2 0
BBX 2 2 0 3
BITMAP
40
80
ENDCHAR
STARTCHAR quotedblleft
ENCODING 147
SWIDTH 688 0
DWIDTH 3 0
BBX 2 5 1 0
BITMAP
C0
C0
C0
C0
C0
ENDCHAR
STARTCHAR quotedblright
ENCODING 148
SWIDTH 688 0
DWIDTH 3 0
BBX 2 5 1 0
BITMAP
C0
C0
C0
C0
C0
ENDCHAR
STARTCHAR bullet
ENCODING 149
SWIDTH 688 0
DWIDTH 3 0
BBX 2 5 1 0
BITMAP
C0
C0
C0
C0
C0
ENDCHAR
STARTCHAR endash
ENCODING 150
SWIDTH 688 0
DWIDTH 3 0
BBX 2 5 1 0
BITMAP
C0
C0
C0
C0
C0
ENDCHAR
STARTCHAR emdash
ENCODING 151
SWIDTH 688 0
DWIDTH 3 0
BBX 2 5 1 0
BITMAP
C0
C0
C0
C0
C0
ENDCHAR
STARTCHAR tilde
ENCODING 152
SWIDTH 688 0
DWIDTH 3 0
BBX 2 5 1 0
BITMAP
C0
C0
C0
C0
C0
ENDCHAR
STARTCHAR trademark
ENCODING 153
SWIDTH 688 0
DWIDTH 3 0
BBX 2 5 1 0
BITMAP
C0
C0
C0
C0
C0
ENDCHAR
STARTCHAR scaron
ENCODING 154
SWIDTH 688 0
DWIDTH 3 0
BBX 2 5 1 0
BITMAP
C0
C0
C0
C0
C0
ENDCHAR
STARTCHAR guilsinglright
ENCODING 155
SWIDTH 688 0
DWIDTH 3 0
BBX 2 5 1 0
BITMAP
C0
C0
C0
C0
C0
ENDCHAR
STARTCHAR oe
ENCODING 156
SWIDTH 688 0
DWIDTH 3 0
BBX 2 5 1 0
BITMAP
C0
C0
C0
C0
C0
ENDCHAR
STARTCHAR NameMe.157
ENCODING 157
SWIDTH 688 0
DWIDTH 3 0
BBX 2 5 1 0
BITMAP
C0
C0
C0
C0
C0
ENDCHAR
STARTCHAR zcaron
ENCODING 158
SWIDTH 688 0
DWIDTH 3 0
BBX 2 5 1 0
BITMAP
C0
C0
C0
C0
C0
ENDCHAR
STARTCHAR Ydieresis
ENCODING 159
SWIDTH 688 0
DWIDTH 3 0
BBX 2 5 1 0
BITMAP
C0
C0
C0
C0
C0
ENDCHAR
STARTCHAR uni00A0
ENCODING 160
SWIDTH 562 0
DWIDTH 2 0
BBX 1 1 1 -1
BITMAP
00
ENDCHAR
STARTCHAR exclamdown
ENCODING 161
SWIDTH 562 0
DWIDTH 2 0
BBX 1 5 1 0
BITMAP
80
00
80
80
80
ENDCHAR
STARTCHAR cent
ENCODING 162
SWIDTH 1125 0
DWIDTH 5 0
BBX 4 5 1 0
BITMAP
20
70
80
70
20
ENDCHAR
STARTCHAR sterling
ENCODING 163
SWIDTH 1125 0
DWIDTH 5 0
BBX 4 5 1 0
BITMAP
30
40
F0
40
F0
ENDCHAR
STARTCHAR currency
ENCODING 164
SWIDTH 1188 0
DWIDTH 5 0
BBX 5 5 0 0
BITMAP
D8
70
50
70
D8
ENDCHAR
STARTCHAR yen
ENCODING 165
SWIDTH 1188 0
DWIDTH 5 0
BBX 5 5 0 0
BITMAP
88
50
20
70
20
ENDCHAR
STARTCHAR brokenbar
ENCODING 166
SWIDTH 438 0
DWIDTH 2 0
BBX 1 5 1 0
BITMAP
80
80
00
80
80
ENDCHAR
STARTCHAR section
ENCODING 167
SWIDTH 1000 0
DWIDTH 5 0
BBX 4 6 1 -1
BITMAP
70
80
70
E0
10
E0
ENDCHAR
STARTCHAR dieresis
ENCODING 168
SWIDTH 1000 0
DWIDTH 5 0
BBX 5 1 0 4
BITMAP
D8
ENDCHAR
STARTCHAR copyright
ENCODING 169
SWIDTH 1500 0
DWIDTH 8 0
BBX 7 6 1 -1
BITMAP
7C
9A
A2
A2
9A
7C
ENDCHAR
STARTCHAR ordfeminine
ENCODING 170
SWIDTH 625 0
DWIDTH 5 0
BBX 4 5 1 0
BITMAP
70
90
70
00
F0
ENDCHAR
STARTCHAR guillemotleft
ENCODING 171
SWIDTH 875 0
DWIDTH 5 0
BBX 5 3 0 1
BITMAP
48
90
48
ENDCHAR
STARTCHAR logicalnot
ENCODING 172
SWIDTH 1188 0
DWIDTH 5 0
BBX 4 2 1 1
BITMAP
F0
10
ENDCHAR
STARTCHAR uni00AD
ENCODING 173
SWIDTH 625 0
DWIDTH 3 0
BBX 3 1 0 2
BITMAP
E0
ENDCHAR
STARTCHAR registered
ENCODING 174
SWIDTH 1500 0
DWIDTH 8 0
BBX 7 6 1 -1
BITMAP
7C
BA
AA
B2
AA
7C
ENDCHAR
STARTCHAR macron
ENCODING 175
SWIDTH 1000 0
DWIDTH 5 0
BBX 5 1 0 4
BITMAP
F8
ENDCHAR
STARTCHAR degree
ENCODING 176
SWIDTH 688 0
DWIDTH 5 0
BBX 4 3 1 2
BITMAP
60
90
60
ENDCHAR
STARTCHAR plusminus
ENCODING 177
SWIDTH 1188 0
DWIDTH 6 0
BBX 5 5 1 0
BITMAP
20
F8
20
00
F8
ENDCHAR
STARTCHAR uni00B2
ENCODING 178
SWIDTH 625 0
DWIDTH 4 0
BBX 3 4 1 1
BITMAP
C0
20
40
E0
ENDCHAR
STARTCHAR uni00B3
ENCODING 179
SWIDTH 625 0
DWIDTH 4 0
BBX 3 4 1 1
BITMAP
E0
60
20
E0
ENDCHAR
STARTCHAR acute
ENCODING 180
SWIDTH 1000 0
DWIDTH 5 0
BBX 2 2 2 3
BITMAP
40
80
ENDCHAR
STARTCHAR mu
ENCODING 181
SWIDTH 1000 0
DWIDTH 5 0
BBX 4 5 1 -1
BITMAP
90
90
90
E0
80
ENDCHAR
STARTCHAR paragraph
ENCODING 182
SWIDTH 1000 0
DWIDTH 7 0
BBX 6 5 1 0
BITMAP
7C
F4
74
14
14
ENDCHAR
STARTCHAR periodcentered
ENCODING 183
SWIDTH 562 0
DWIDTH 2 0
BBX 1 1 1 2
BITMAP
80
ENDCHAR
STARTCHAR cedilla
ENCODING 184
SWIDTH 1000 0
DWIDTH 5 0
BBX 2 2 2 -1
BITMAP
40
C0
ENDCHAR
STARTCHAR uni00B9
ENCODING 185
SWIDTH 625 0
DWIDTH 4 0
BBX 2 4 1 1
BITMAP
40
C0
40
40
ENDCHAR
STARTCHAR ordmasculine
ENCODING 186
SWIDTH 625 0
DWIDTH 5 0
BBX 4 5 1 0
BITMAP
60
90
60
00
F0
ENDCHAR
STARTCHAR guillemotright
ENCODING 187
SWIDTH 875 0
DWIDTH 5 0
BBX 5 3 0 1
BITMAP
90
48
90
ENDCHAR
STARTCHAR onequarter
ENCODING 188
SWIDTH 1688 0
DWIDTH 8 0
BBX 7 6 1 -1
BITMAP
40
C0
4A
4A
0E
02
ENDCHAR
STARTCHAR onehalf
ENCODING 189
SWIDTH 1688 0
DWIDTH 8 0
BBX 7 6 1 -1
BITMAP
40
C0
4C
42
04
0E
ENDCHAR
STARTCHAR threequarters
ENCODING 190
SWIDTH 1688 0
DWIDTH 8 0
BBX 7 6 1 -1
BITMAP
E0
60
2A
EA
0E
02
ENDCHAR
STARTCHAR questiondown
ENCODING 191
SWIDTH 1062 0
DWIDTH 6 0
BBX 5 5 1 0
BITMAP
20
00
60
88
70
ENDCHAR
STARTCHAR Agrave
ENCODING 192
SWIDTH 1312 0
DWIDTH 7 0
BBX 6 5 1 0
BITMAP
30
48
84
FC
84
ENDCHAR
STARTCHAR Aacute
ENCODING 193
SWIDTH 1312 0
DWIDTH 7 0
BBX 6 5 1 0
BITMAP
F8
80
F8
84
F8
ENDCHAR
STARTCHAR Acircumflex
ENCODING 194
SWIDTH 1312 0
DWIDTH 7 0
BBX 6 5 1 0
BITMAP
F8
84
F8
84
F8
ENDCHAR
STARTCHAR Atilde
ENCODING 195
SWIDTH 1188 0
DWIDTH 5 0
BBX 4 5 1 0
BITMAP
F0
80
80
80
80
ENDCHAR
STARTCHAR Adieresis
ENCODING 196
SWIDTH 1438 0
DWIDTH 8 0
BBX 7 6 1 -1
BITMAP
10
28
28
44
FE
82
ENDCHAR
STARTCHAR Aring
ENCODING 197
SWIDTH 1250 0
DWIDTH 6 0
BBX 5 5 1 0
BITMAP
F8
80
F0
80
F8
ENDCHAR
STARTCHAR AE
ENCODING 198
SWIDTH 2000 0
DWIDTH 10 0
BBX 9 5 1 0
BITMAP
8880
4900
3E00
4900
8880
ENDCHAR
STARTCHAR Ccedilla
ENCODING 199
SWIDTH 1188 0
DWIDTH 8 0
BBX 7 5 1 0
BITMAP
7C
82
1C
82
7C
ENDCHAR
STARTCHAR Egrave
ENCODING 200
SWIDTH 1500 0
DWIDTH 8 0
BBX 7 5 1 0
BITMAP
86
8A
92
A2
C2
ENDCHAR
STARTCHAR Eacute
ENCODING 201
SWIDTH 1500 0
DWIDTH 8 0
BBX 7 5 1 0
BITMAP
B6
8A
92
A2
C2
ENDCHAR
STARTCHAR Ecircumflex
ENCODING 202
SWIDTH 1250 0
DWIDTH 7 0
BBX 6 5 1 0
BITMAP
84
88
F0
88
84
ENDCHAR
STARTCHAR Edieresis
ENCODING 203
SWIDTH 1312 0
DWIDTH 8 0
BBX 7 5 1 0
BITMAP
3E
42
42
42
82
ENDCHAR
STARTCHAR Igrave
ENCODING 204
SWIDTH 1625 0
DWIDTH 10 0
BBX 9 5 1 0
BITMAP
8080
C180
A280
9480
8880
ENDCHAR
STARTCHAR Iacute
ENCODING 205
SWIDTH 1438 0
DWIDTH 8 0
BBX 7 5 1 0
BITMAP
82
82
FE
82
82
ENDCHAR
STARTCHAR Icircumflex
ENCODING 206
SWIDTH 1562 0
DWIDTH 8 0
BBX 7 5 1 0
BITMAP
7C
82
82
82
7C
ENDCHAR
STARTCHAR Idieresis
ENCODING 207
SWIDTH 1438 0
DWIDTH 7 0
BBX 6 5 1 0
BITMAP
FC
84
84
84
84
ENDCHAR
STARTCHAR Eth
ENCODING 208
SWIDTH 1250 0
DWIDTH 7 0
BBX 6 5 1 0
BITMAP
F8
84
F8
80
80
ENDCHAR
STARTCHAR Ntilde
ENCODING 209
SWIDTH 1438 0
DWIDTH 8 0
BBX 7 5 1 0
BITMAP
7C
82
80
82
7C
ENDCHAR
STARTCHAR Ograve
ENCODING 210
SWIDTH 1125 0
DWIDTH 6 0
BBX 5 5 1 0
BITMAP
F8
20
20
20
20
ENDCHAR
STARTCHAR Oacute
ENCODING 211
SWIDTH 1125 0
DWIDTH 7 0
BBX 6 5 1 0
BITMAP
84
84
7C
04
78
ENDCHAR
STARTCHAR Ocircumflex
ENCODING 212
SWIDTH 1562 0
DWIDTH 8 0
BBX 7 5 1 0
BITMAP
7C
92
7C
10
10
ENDCHAR
STARTCHAR Otilde
ENCODING 213
SWIDTH 1188 0
DWIDTH 6 0
BBX 5 5 1 0
BITMAP
88
50
20
50
88
ENDCHAR
STARTCHAR Odieresis
ENCODING 214
SWIDTH 1562 0
DWIDTH 8 0
BBX 7 6 1 -1
BITMAP
84
84
84
84
FE
02
ENDCHAR
STARTCHAR multiply
ENCODING 215
SWIDTH 1188 0
DWIDTH 7 0
BBX 6 5 1 0
BITMAP
84
84
7C
04
04
ENDCHAR
STARTCHAR Oslash
ENCODING 216
SWIDTH 1812 0
DWIDTH 10 0
BBX 9 5 1 0
BITMAP
8880
8880
8880
8880
FF80
ENDCHAR
STARTCHAR Ugrave
ENCODING 217
SWIDTH 2000 0
DWIDTH 11 0
BBX 10 6 1 -1
BITMAP
8880
8880
8880
8880
FFC0
0040
ENDCHAR
STARTCHAR Uacute
ENCODING 218
SWIDTH 1500 0
DWIDTH 8 0
BBX 8 5 0 0
BITMAP
E0
20
3E
21
3E
ENDCHAR
STARTCHAR Ucircumflex
ENCODING 219
SWIDTH 1562 0
DWIDTH 9 0
BBX 8 5 1 0
BITMAP
81
81
F9
85
F9
ENDCHAR
STARTCHAR Udieresis
ENCODING 220
SWIDTH 1375 0
DWIDTH 7 0
BBX 6 5 1 0
BITMAP
80
80
F8
84
F8
ENDCHAR
STARTCHAR Yacute
ENCODING 221
SWIDTH 1500 0
DWIDTH 8 0
BBX 7 5 1 0
BITMAP
7C
82
1E
82
7C
ENDCHAR
STARTCHAR Thorn
ENCODING 222
SWIDTH 1812 0
DWIDTH 10 0
BBX 9 5 1 0
BITMAP
8F00
9080
F080
9080
8F00
ENDCHAR
STARTCHAR germandbls
ENCODING 223
SWIDTH 1312 0
DWIDTH 7 0
BBX 6 5 1 0
BITMAP
7C
84
7C
44
84
ENDCHAR
STARTCHAR agrave
ENCODING 224
SWIDTH 1062 0
DWIDTH 6 0
BBX 5 4 1 0
BITMAP
70
08
D8
68
ENDCHAR
STARTCHAR aacute
ENCODING 225
SWIDTH 1125 0
DWIDTH 6 0
BBX 5 5 1 0
BITMAP
70
80
F0
88
70
ENDCHAR
STARTCHAR acircumflex
ENCODING 226
SWIDTH 1125 0
DWIDTH 6 0
BBX 5 5 1 0
BITMAP
60
90
F0
88
70
ENDCHAR
STARTCHAR atilde
ENCODING 227
SWIDTH 938 0
DWIDTH 4 0
BBX 3 4 1 0
BITMAP
E0
80
80
80
ENDCHAR
STARTCHAR adieresis
ENCODING 228
SWIDTH 1375 0
DWIDTH 6 0
BBX 5 5 1 0
BITMAP
70
08
78
88
70
ENDCHAR
STARTCHAR aring
ENCODING 229
SWIDTH 1125 0
DWIDTH 6 0
BBX 5 4 1 0
BITMAP
70
D8
80
70
ENDCHAR
STARTCHAR ae
ENCODING 230
SWIDTH 1688 0
DWIDTH 8 0
BBX 7 4 1 0
BITMAP
54
38
54
92
ENDCHAR
STARTCHAR ccedilla
ENCODING 231
SWIDTH 1062 0
DWIDTH 6 0
BBX 5 4 1 0
BITMAP
70
38
88
70
ENDCHAR
STARTCHAR egrave
ENCODING 232
SWIDTH 1125 0
DWIDTH 6 0
BBX 5 4 1 0
BITMAP
88
98
A8
C8
ENDCHAR
STARTCHAR eacute
ENCODING 233
SWIDTH 1125 0
DWIDTH 6 0
BBX 5 5 1 0
BITMAP
20
A8
98
A8
C8
ENDCHAR
STARTCHAR ecircumflex
ENCODING 234
SWIDTH 1062 0
DWIDTH 5 0
BBX 4 4 1 0
BITMAP
A0
C0
A0
90
ENDCHAR
STARTCHAR edieresis
ENCODING 235
SWIDTH 1062 0
DWIDTH 5 0
BBX 4 4 1 0
BITMAP
30
50
50
90
ENDCHAR
STARTCHAR igrave
ENCODING 236
SWIDTH 1500 0
DWIDTH 8 0
BBX 7 4 1 0
BITMAP
C6
AA
92
82
ENDCHAR
STARTCHAR iacute
ENCODING 237
SWIDTH 1125 0
DWIDTH 5 0
BBX 4 4 1 0
BITMAP
90
F0
90
90
ENDCHAR
STARTCHAR icircumflex
ENCODING 238
SWIDTH 1125 0
DWIDTH 6 0
BBX 5 4 1 0
BITMAP
70
88
88
70
ENDCHAR
STARTCHAR idieresis
ENCODING 239
SWIDTH 1125 0
DWIDTH 5 0
BBX 4 4 1 0
BITMAP
F0
90
90
90
ENDCHAR
STARTCHAR eth
ENCODING 240
SWIDTH 1188 0
DWIDTH 6 0
BBX 5 5 1 -1
BITMAP
F0
88
88
F0
80
ENDCHAR
STARTCHAR ntilde
ENCODING 241
SWIDTH 1062 0
DWIDTH 5 0
BBX 4 4 1 0
BITMAP
70
80
80
70
ENDCHAR
STARTCHAR ograve
ENCODING 242
SWIDTH 1062 0
DWIDTH 6 0
BBX 5 4 1 0
BITMAP
F8
20
20
20
ENDCHAR
STARTCHAR oacute
ENCODING 243
SWIDTH 938 0
DWIDTH 6 0
BBX 5 5 1 -1
BITMAP
88
88
50
20
C0
ENDCHAR
STARTCHAR ocircumflex
ENCODING 244
SWIDTH 1188 0
DWIDTH 6 0
BBX 5 6 1 -1
BITMAP
20
70
A8
A8
70
20
ENDCHAR
STARTCHAR otilde
ENCODING 245
SWIDTH 938 0
DWIDTH 5 0
BBX 4 4 1 0
BITMAP
90
60
60
90
ENDCHAR
STARTCHAR odieresis
ENCODING 246
SWIDTH 1188 0
DWIDTH 6 0
BBX 5 5 1 -1
BITMAP
90
90
90
F8
08
ENDCHAR
STARTCHAR divide
ENCODING 247
SWIDTH 1062 0
DWIDTH 6 0
BBX 5 4 1 0
BITMAP
88
88
F8
08
ENDCHAR
STARTCHAR oslash
ENCODING 248
SWIDTH 1438 0
DWIDTH 8 0
BBX 7 4 1 0
BITMAP
92
92
92
FE
ENDCHAR
STARTCHAR ugrave
ENCODING 249
SWIDTH 1625 0
DWIDTH 9 0
BBX 8 5 1 -1
BITMAP
92
92
92
FF
01
ENDCHAR
STARTCHAR uacute
ENCODING 250
SWIDTH 1250 0
DWIDTH 6 0
BBX 6 4 0 0
BITMAP
C0
78
44
78
ENDCHAR
STARTCHAR ucircumflex
ENCODING 251
SWIDTH 1312 0
DWIDTH 6 0
BBX 5 4 1 0
BITMAP
88
E8
98
E8
ENDCHAR
STARTCHAR udieresis
ENCODING 252
SWIDTH 1125 0
DWIDTH 6 0
BBX 5 4 1 0
BITMAP
80
F0
88
F0
ENDCHAR
STARTCHAR yacute
ENCODING 253
SWIDTH 1062 0
DWIDTH 6 0
BBX 5 4 1 0
BITMAP
78
18
08
F0
ENDCHAR
STARTCHAR thorn
ENCODING 254
SWIDTH 1438 0
DWIDTH 6 0
BBX 5 4 1 0
BITMAP
B0
E8
A8
B0
ENDCHAR
STARTCHAR ydieresis
ENCODING 255
SWIDTH 1062 0
DWIDTH 6 0
BBX 4 4 2 0
BITMAP
70
90
70
90
ENDCHAR
ENDFONT
